STARTFONT 2.1
COMMENT $Id$
COMMENT 
COMMENT Copyright (C) Centre d'Etudes de la Navigation Aérienne
COMMENT 
COMMENT This software is free software; you can redistribute it and/or
COMMENT modify it under the terms of the GNU Lesser General Public License
COMMENT as published by the Free Software Foundation: either version 2
COMMENT of the License, or (at your option) any later version.
COMMENT 
COMMENT This software is distributed in the hope that it will be useful,
COMMENT but WITHOUT ANY WARRANTY; without even the implied warranty of
COMMENT MERCHANTABILITY or FITNESS FOR A PARTICULAR PURPOSE.  See the
COMMENT GNU Lesser General Public License for more details.
COMMENT 
COMMENT You should have received a copy of the GNU Lesser General Public License
COMMENT along with this software; if not, write to the Free Software
COMMENT Foundation, Inc., 59 Temple Place - Suite 330, Boston, MA  02111-1307, USA.
COMMENT Please refer to http://www.gnu.org/copyleft/gpl.html
COMMENT
COMMENT to contact us:
COMMENT    email to:  pii-contact@cena.dgac.fr
COMMENT or write to: CENA, 7 avenue Edouard Belin, 31400 Toulouse, France 
COMMENT $Id$
COMMENT 
FONT -cena-orly label-medium-r-normal-sans-14-140-75-75-p-80-fontspecific-1
SIZE 14 75 75
FONTBOUNDINGBOX 17 16 -3 -3
STARTPROPERTIES 15
FOUNDRY "CENA"
FAMILY_NAME "Orly Label"
COPYRIGHT "Copyright 1999 CENA/J.L.Vinot"
POINT_SIZE 140
PIXEL_SIZE 14
RESOLUTION_X 75
RESOLUTION_Y 75
SPACING "p"
WEIGHT_NAME "medium"
SLANT "r"
SETWIDTH_NAME "normal"
_XMBDFED_INFO "Edited with xmbdfed 3.3."
DEFAULT_CHAR 0
FONT_ASCENT 13
FONT_DESCENT 3
ENDPROPERTIES
CHARS 132
STARTCHAR char32
ENCODING 32
SWIDTH 342 0
DWIDTH 5 0
BBX 0 0 0 0
BITMAP
ENDCHAR
STARTCHAR char33
ENCODING 33
SWIDTH 274 0
DWIDTH 4 0
BBX 2 10 1 0
BITMAP
C0
C0
C0
C0
C0
C0
C0
00
C0
C0
ENDCHAR
STARTCHAR char34
ENCODING 34
SWIDTH 480 0
DWIDTH 7 0
BBX 5 3 1 7
BITMAP
D8
D8
90
ENDCHAR
STARTCHAR char35
ENCODING 35
SWIDTH 685 0
DWIDTH 10 0
BBX 9 11 0 -1
BITMAP
0900
1B00
1200
7F80
1200
3600
2400
FF00
2400
6C00
4800
ENDCHAR
STARTCHAR char37
ENCODING 37
SWIDTH 891 0
DWIDTH 13 0
BBX 11 10 0 0
BITMAP
6100
9300
9200
9600
6400
0CC0
0920
1920
1120
30C0
ENDCHAR
STARTCHAR char39
ENCODING 39
SWIDTH 274 0
DWIDTH 4 0
BBX 2 3 1 7
BITMAP
C0
C0
80
ENDCHAR
STARTCHAR char40
ENCODING 40
SWIDTH 274 0
DWIDTH 4 0
BBX 3 11 0 -1
BITMAP
20
60
40
C0
C0
C0
C0
C0
40
60
20
ENDCHAR
STARTCHAR char41
ENCODING 41
SWIDTH 274 0
DWIDTH 4 0
BBX 3 11 0 -1
BITMAP
80
C0
40
60
60
60
60
60
40
C0
80
ENDCHAR
STARTCHAR char42
ENCODING 42
SWIDTH 548 0
DWIDTH 8 0
BBX 7 7 0 3
BITMAP
44
6C
38
FE
38
6C
44
ENDCHAR
STARTCHAR char43
ENCODING 43
SWIDTH 685 0
DWIDTH 10 0
BBX 8 7 1 1
BITMAP
18
18
18
FF
18
18
18
ENDCHAR
STARTCHAR char44
ENCODING 44
SWIDTH 274 0
DWIDTH 4 0
BBX 3 3 0 -1
BITMAP
60
40
80
ENDCHAR
STARTCHAR char45
ENCODING 45
SWIDTH 480 0
DWIDTH 7 0
BBX 5 1 1 4
BITMAP
F8
ENDCHAR
STARTCHAR char46
ENCODING 46
SWIDTH 274 0
DWIDTH 4 0
BBX 2 2 1 0
BITMAP
C0
C0
ENDCHAR
STARTCHAR char47
ENCODING 47
SWIDTH 342 0
DWIDTH 5 0
BBX 5 10 0 0
BITMAP
08
08
10
10
20
20
40
40
80
80
ENDCHAR
STARTCHAR char48
ENCODING 48
SWIDTH 685 0
DWIDTH 10 0
BBX 8 10 0 0
BITMAP
3C
66
C3
C3
DB
DB
C3
C3
66
3C
ENDCHAR
STARTCHAR char49
ENCODING 49
SWIDTH 617 0
DWIDTH 9 0
BBX 6 10 0 0
BITMAP
1C
3C
6C
CC
0C
0C
0C
0C
0C
0C
ENDCHAR
STARTCHAR char50
ENCODING 50
SWIDTH 617 0
DWIDTH 9 0
BBX 7 10 0 0
BITMAP
7C
C6
86
06
0C
18
30
60
C0
FE
ENDCHAR
STARTCHAR char51
ENCODING 51
SWIDTH 617 0
DWIDTH 9 0
BBX 8 10 -1 0
BITMAP
3E
63
03
06
1C
06
03
C3
63
3E
ENDCHAR
STARTCHAR char52
ENCODING 52
SWIDTH 685 0
DWIDTH 10 0
BBX 8 10 0 0
BITMAP
06
0E
1E
36
66
C6
C6
FF
06
06
ENDCHAR
STARTCHAR char53
ENCODING 53
SWIDTH 685 0
DWIDTH 10 0
BBX 8 10 0 0
BITMAP
FE
C0
C0
FC
C6
03
03
03
C6
7C
ENDCHAR
STARTCHAR char54
ENCODING 54
SWIDTH 685 0
DWIDTH 10 0
BBX 8 10 0 0
BITMAP
0C
18
30
7C
66
C3
C3
C3
66
3C
ENDCHAR
STARTCHAR char55
ENCODING 55
SWIDTH 617 0
DWIDTH 9 0
BBX 8 10 0 0
BITMAP
FF
83
06
0C
0C
18
18
30
30
30
ENDCHAR
STARTCHAR char56
ENCODING 56
SWIDTH 685 0
DWIDTH 10 0
BBX 9 10 0 0
BITMAP
3E00
6300
6300
7300
3E00
6300
C180
C180
E180
3F00
ENDCHAR
STARTCHAR char57
ENCODING 57
SWIDTH 685 0
DWIDTH 10 0
BBX 8 10 0 0
BITMAP
3C
66
C3
C3
C3
66
3E
0C
18
30
ENDCHAR
STARTCHAR char58
ENCODING 58
SWIDTH 342 0
DWIDTH 5 0
BBX 2 7 1 0
BITMAP
C0
C0
00
00
00
C0
C0
ENDCHAR
STARTCHAR char59
ENCODING 59
SWIDTH 342 0
DWIDTH 5 0
BBX 3 8 0 -1
BITMAP
60
60
00
00
00
60
40
80
ENDCHAR
STARTCHAR char60
ENCODING 60
SWIDTH 480 0
DWIDTH 7 0
BBX 6 9 0 0
BITMAP
0C
18
30
60
C0
60
30
18
0C
ENDCHAR
STARTCHAR char61
ENCODING 61
SWIDTH 685 0
DWIDTH 10 0
BBX 6 4 1 2
BITMAP
FC
00
00
FC
ENDCHAR
STARTCHAR char62
ENCODING 62
SWIDTH 480 0
DWIDTH 7 0
BBX 6 9 1 0
BITMAP
C0
60
30
18
0C
18
30
60
C0
ENDCHAR
STARTCHAR char63
ENCODING 63
SWIDTH 480 0
DWIDTH 7 0
BBX 6 10 0 0
BITMAP
78
CC
0C
0C
0C
18
30
00
30
30
ENDCHAR
STARTCHAR char64
ENCODING 64
SWIDTH 891 0
DWIDTH 13 0
BBX 12 12 0 -2
BITMAP
1F80
30C0
6060
CFB0
D9B0
D9B0
D9B0
D9B0
CEE0
6000
3000
1F80
ENDCHAR
STARTCHAR char65
ENCODING 65
SWIDTH 685 0
DWIDTH 10 0
BBX 10 10 -1 0
BITMAP
0C00
0C00
1E00
1600
3600
2300
2300
7F80
4180
C1C0
ENDCHAR
STARTCHAR char66
ENCODING 66
SWIDTH 685 0
DWIDTH 10 0
BBX 8 10 0 0
BITMAP
FC
C6
C6
C6
FC
C6
C3
C3
C3
FE
ENDCHAR
STARTCHAR char67
ENCODING 67
SWIDTH 617 0
DWIDTH 9 0
BBX 8 10 0 0
BITMAP
3E
63
C0
C0
C0
C0
C0
C0
63
3E
ENDCHAR
STARTCHAR char68
ENCODING 68
SWIDTH 685 0
DWIDTH 10 0
BBX 8 10 0 0
BITMAP
FC
C6
C3
C3
C3
C3
C3
C3
C6
FC
ENDCHAR
STARTCHAR char69
ENCODING 69
SWIDTH 617 0
DWIDTH 9 0
BBX 7 10 0 0
BITMAP
FE
C0
C0
C0
FC
C0
C0
C0
C0
FE
ENDCHAR
STARTCHAR char70
ENCODING 70
SWIDTH 548 0
DWIDTH 8 0
BBX 7 10 0 0
BITMAP
FE
C0
C0
C0
FC
C0
C0
C0
C0
C0
ENDCHAR
STARTCHAR char71
ENCODING 71
SWIDTH 685 0
DWIDTH 10 0
BBX 8 10 0 0
BITMAP
3E
63
C0
C0
C0
CF
C3
C3
63
3F
ENDCHAR
STARTCHAR char72
ENCODING 72
SWIDTH 685 0
DWIDTH 10 0
BBX 8 10 0 0
BITMAP
C3
C3
C3
C3
FF
C3
C3
C3
C3
C3
ENDCHAR
STARTCHAR char73
ENCODING 73
SWIDTH 411 0
DWIDTH 6 0
BBX 2 10 1 0
BITMAP
C0
C0
C0
C0
C0
C0
C0
C0
C0
C0
ENDCHAR
STARTCHAR char74
ENCODING 74
SWIDTH 548 0
DWIDTH 8 0
BBX 7 10 -1 0
BITMAP
06
06
06
06
06
06
06
C6
66
3C
ENDCHAR
STARTCHAR char75
ENCODING 75
SWIDTH 617 0
DWIDTH 9 0
BBX 8 10 0 0
BITMAP
C6
CC
D8
F0
E0
F0
D8
CC
C6
C3
ENDCHAR
STARTCHAR char76
ENCODING 76
SWIDTH 548 0
DWIDTH 8 0
BBX 6 10 0 0
BITMAP
C0
C0
C0
C0
C0
C0
C0
C0
C0
FC
ENDCHAR
STARTCHAR char77
ENCODING 77
SWIDTH 754 0
DWIDTH 11 0
BBX 9 10 0 0
BITMAP
C180
C180
E380
E380
F780
D580
DD80
C980
C980
C180
ENDCHAR
STARTCHAR char78
ENCODING 78
SWIDTH 685 0
DWIDTH 10 0
BBX 8 10 0 0
BITMAP
C3
E3
E3
F3
D3
DB
CF
C7
C7
C3
ENDCHAR
STARTCHAR char79
ENCODING 79
SWIDTH 685 0
DWIDTH 10 0
BBX 8 10 0 0
BITMAP
3C
66
C3
C3
C3
C3
C3
C3
66
3C
ENDCHAR
STARTCHAR char80
ENCODING 80
SWIDTH 617 0
DWIDTH 9 0
BBX 7 10 0 0
BITMAP
FC
C6
C6
C6
C6
FC
C0
C0
C0
C0
ENDCHAR
STARTCHAR char81
ENCODING 81
SWIDTH 685 0
DWIDTH 10 0
BBX 8 11 0 -1
BITMAP
3C
66
C3
C3
C3
D3
DB
CF
66
3B
01
ENDCHAR
STARTCHAR char82
ENCODING 82
SWIDTH 617 0
DWIDTH 9 0
BBX 8 10 0 0
BITMAP
FC
C6
C6
C6
CC
F8
D8
CC
C6
C3
ENDCHAR
STARTCHAR char83
ENCODING 83
SWIDTH 617 0
DWIDTH 9 0
BBX 8 10 -1 0
BITMAP
3E
63
60
70
3C
0E
07
C3
63
3E
ENDCHAR
STARTCHAR char84
ENCODING 84
SWIDTH 617 0
DWIDTH 9 0
BBX 8 10 0 0
BITMAP
FF
18
18
18
18
18
18
18
18
18
ENDCHAR
STARTCHAR char85
ENCODING 85
SWIDTH 685 0
DWIDTH 10 0
BBX 8 10 0 0
BITMAP
C3
C3
C3
C3
C3
C3
C3
C3
66
3C
ENDCHAR
STARTCHAR char86
ENCODING 86
SWIDTH 685 0
DWIDTH 10 0
BBX 8 10 0 0
BITMAP
C1
C1
63
62
66
36
34
3C
18
18
ENDCHAR
STARTCHAR char87
ENCODING 87
SWIDTH 891 0
DWIDTH 13 0
BBX 11 10 0 0
BITMAP
C020
C620
C620
6660
6F40
6B40
7BC0
3980
3180
3180
ENDCHAR
STARTCHAR char88
ENCODING 88
SWIDTH 617 0
DWIDTH 9 0
BBX 8 10 0 0
BITMAP
C3
66
64
3C
18
3C
2C
66
46
C3
ENDCHAR
STARTCHAR char89
ENCODING 89
SWIDTH 617 0
DWIDTH 9 0
BBX 8 10 0 0
BITMAP
C3
C2
66
34
3C
18
18
18
18
18
ENDCHAR
STARTCHAR char90
ENCODING 90
SWIDTH 617 0
DWIDTH 9 0
BBX 8 10 0 0
BITMAP
FE
06
0C
18
18
30
60
60
C0
FF
ENDCHAR
STARTCHAR char91
ENCODING 91
SWIDTH 274 0
DWIDTH 4 0
BBX 3 11 0 -1
BITMAP
E0
C0
C0
C0
C0
C0
C0
C0
C0
C0
E0
ENDCHAR
STARTCHAR char92
ENCODING 92
SWIDTH 342 0
DWIDTH 5 0
BBX 5 10 0 0
BITMAP
80
80
40
40
20
20
10
10
08
08
ENDCHAR
STARTCHAR char93
ENCODING 93
SWIDTH 274 0
DWIDTH 4 0
BBX 3 11 0 -1
BITMAP
E0
60
60
60
60
60
60
60
60
60
E0
ENDCHAR
STARTCHAR char94
ENCODING 94
SWIDTH 480 0
DWIDTH 7 0
BBX 5 4 1 7
BITMAP
20
70
50
88
ENDCHAR
STARTCHAR char95
ENCODING 95
SWIDTH 480 0
DWIDTH 7 0
BBX 7 1 0 -3
BITMAP
FE
ENDCHAR
STARTCHAR char96
ENCODING 96
SWIDTH 548 0
DWIDTH 8 0
BBX 3 2 2 7
BITMAP
C0
60
ENDCHAR
STARTCHAR char97
ENCODING 97
SWIDTH 548 0
DWIDTH 8 0
BBX 7 7 0 0
BITMAP
7E
C6
C6
C6
C6
CE
76
ENDCHAR
STARTCHAR char98
ENCODING 98
SWIDTH 548 0
DWIDTH 8 0
BBX 7 10 0 0
BITMAP
C0
C0
C0
DC
E6
C6
C6
C6
C6
FC
ENDCHAR
STARTCHAR char99
ENCODING 99
SWIDTH 548 0
DWIDTH 8 0
BBX 7 7 0 0
BITMAP
7C
C6
C0
C0
C0
C6
7C
ENDCHAR
STARTCHAR char100
ENCODING 100
SWIDTH 548 0
DWIDTH 8 0
BBX 7 10 0 0
BITMAP
06
06
06
76
CE
C6
C6
C6
C6
7E
ENDCHAR
STARTCHAR char101
ENCODING 101
SWIDTH 548 0
DWIDTH 8 0
BBX 7 7 0 0
BITMAP
7C
C6
C6
FE
C0
C6
7C
ENDCHAR
STARTCHAR char102
ENCODING 102
SWIDTH 411 0
DWIDTH 6 0
BBX 5 10 0 0
BITMAP
38
60
60
F8
60
60
60
60
60
60
ENDCHAR
STARTCHAR char103
ENCODING 103
SWIDTH 548 0
DWIDTH 8 0
BBX 7 10 0 -3
BITMAP
7E
C6
C6
C6
C6
CE
76
06
C6
7C
ENDCHAR
STARTCHAR char104
ENCODING 104
SWIDTH 548 0
DWIDTH 8 0
BBX 7 10 0 0
BITMAP
C0
C0
C0
DC
E6
C6
C6
C6
C6
C6
ENDCHAR
STARTCHAR char105
ENCODING 105
SWIDTH 342 0
DWIDTH 5 0
BBX 2 10 1 0
BITMAP
C0
C0
00
C0
C0
C0
C0
C0
C0
C0
ENDCHAR
STARTCHAR char106
ENCODING 106
SWIDTH 342 0
DWIDTH 5 0
BBX 4 13 -1 -3
BITMAP
30
30
00
30
30
30
30
30
30
30
30
30
E0
ENDCHAR
STARTCHAR char107
ENCODING 107
SWIDTH 548 0
DWIDTH 8 0
BBX 7 10 0 0
BITMAP
C0
C0
C0
CC
D8
F0
F0
D8
CC
C6
ENDCHAR
STARTCHAR char108
ENCODING 108
SWIDTH 342 0
DWIDTH 5 0
BBX 2 10 1 0
BITMAP
C0
C0
C0
C0
C0
C0
C0
C0
C0
C0
ENDCHAR
STARTCHAR char109
ENCODING 109
SWIDTH 891 0
DWIDTH 13 0
BBX 12 7 0 0
BITMAP
DCE0
E730
C630
C630
C630
C630
C630
ENDCHAR
STARTCHAR char110
ENCODING 110
SWIDTH 548 0
DWIDTH 8 0
BBX 7 7 0 0
BITMAP
DC
E6
C6
C6
C6
C6
C6
ENDCHAR
STARTCHAR char111
ENCODING 111
SWIDTH 548 0
DWIDTH 8 0
BBX 7 7 0 0
BITMAP
7C
C6
C6
C6
C6
C6
7C
ENDCHAR
STARTCHAR char112
ENCODING 112
SWIDTH 548 0
DWIDTH 8 0
BBX 7 10 0 -3
BITMAP
FC
C6
C6
C6
C6
E6
DC
C0
C0
C0
ENDCHAR
STARTCHAR char113
ENCODING 113
SWIDTH 548 0
DWIDTH 8 0
BBX 7 10 0 -3
BITMAP
7E
C6
C6
C6
C6
CE
76
06
06
06
ENDCHAR
STARTCHAR char114
ENCODING 114
SWIDTH 411 0
DWIDTH 6 0
BBX 5 7 0 0
BITMAP
D8
E8
C0
C0
C0
C0
C0
ENDCHAR
STARTCHAR char115
ENCODING 115
SWIDTH 548 0
DWIDTH 8 0
BBX 7 7 0 0
BITMAP
7C
C6
E0
7C
0E
C6
7C
ENDCHAR
STARTCHAR char116
ENCODING 116
SWIDTH 411 0
DWIDTH 6 0
BBX 5 9 0 0
BITMAP
20
60
F8
60
60
60
60
60
38
ENDCHAR
STARTCHAR char117
ENCODING 117
SWIDTH 548 0
DWIDTH 8 0
BBX 7 7 0 0
BITMAP
C6
C6
C6
C6
C6
CE
76
ENDCHAR
STARTCHAR char118
ENCODING 118
SWIDTH 548 0
DWIDTH 8 0
BBX 8 7 0 0
BITMAP
C3
C2
66
64
3C
38
18
ENDCHAR
STARTCHAR char119
ENCODING 119
SWIDTH 754 0
DWIDTH 11 0
BBX 11 7 0 0
BITMAP
C460
CC40
6EC0
6E80
3B80
3300
1100
ENDCHAR
STARTCHAR char120
ENCODING 120
SWIDTH 548 0
DWIDTH 8 0
BBX 8 7 0 0
BITMAP
C3
66
3C
18
3C
66
C3
ENDCHAR
STARTCHAR char121
ENCODING 121
SWIDTH 548 0
DWIDTH 8 0
BBX 8 10 0 -3
BITMAP
C1
C3
62
66
34
3C
18
18
30
30
ENDCHAR
STARTCHAR char122
ENCODING 122
SWIDTH 548 0
DWIDTH 8 0
BBX 7 7 0 0
BITMAP
FE
0C
18
30
60
C0
FE
ENDCHAR
STARTCHAR char123
ENCODING 123
SWIDTH 480 0
DWIDTH 7 0
BBX 6 13 0 -3
BITMAP
1C
30
30
30
30
70
C0
70
30
30
30
30
1C
ENDCHAR
STARTCHAR char124
ENCODING 124
SWIDTH 480 0
DWIDTH 7 0
BBX 1 13 3 -3
BITMAP
80
80
80
80
80
80
80
80
80
80
80
80
80
ENDCHAR
STARTCHAR char125
ENCODING 125
SWIDTH 480 0
DWIDTH 7 0
BBX 6 13 0 -3
BITMAP
E0
30
30
30
30
38
0C
38
30
30
30
30
E0
ENDCHAR
STARTCHAR char126
ENCODING 126
SWIDTH 891 0
DWIDTH 13 0
BBX 8 2 2 2
BITMAP
71
8E
ENDCHAR
STARTCHAR char187
ENCODING 187
SWIDTH 480 0
DWIDTH 7 0
BBX 6 4 0 1
BITMAP
D8
6C
6C
D8
ENDCHAR
STARTCHAR char188
ENCODING 188
SWIDTH 822 0
DWIDTH 12 0
BBX 11 10 1 0
BITMAP
2100
E300
2200
2600
2440
2CC0
0940
1A40
13E0
3040
ENDCHAR
STARTCHAR char189
ENCODING 189
SWIDTH 822 0
DWIDTH 12 0
BBX 11 10 1 0
BITMAP
2100
E300
2200
2600
24C0
2D20
0820
1840
1080
31E0
ENDCHAR
STARTCHAR char190
ENCODING 190
SWIDTH 822 0
DWIDTH 12 0
BBX 12 10 0 0
BITMAP
7080
9180
2100
1300
9220
7660
04A0
0D20
09F0
1820
ENDCHAR
STARTCHAR char192
ENCODING 192
SWIDTH 685 0
DWIDTH 10 0
BBX 10 13 -1 0
BITMAP
1800
0C00
0000
0C00
0C00
1E00
1600
3600
2300
2300
7F80
4180
C1C0
ENDCHAR
STARTCHAR char194
ENCODING 194
SWIDTH 685 0
DWIDTH 10 0
BBX 10 13 -1 0
BITMAP
0E00
1B00
0000
0C00
0C00
1E00
1600
3600
2300
2300
7F80
4180
C1C0
ENDCHAR
STARTCHAR char199
ENCODING 199
SWIDTH 617 0
DWIDTH 9 0
BBX 8 13 0 -3
BITMAP
3E
63
C0
C0
C0
C0
C0
C0
63
3E
00
18
30
ENDCHAR
STARTCHAR char200
ENCODING 200
SWIDTH 617 0
DWIDTH 9 0
BBX 7 13 0 0
BITMAP
30
18
00
FE
C0
C0
C0
FC
C0
C0
C0
C0
FE
ENDCHAR
STARTCHAR char201
ENCODING 201
SWIDTH 617 0
DWIDTH 9 0
BBX 7 13 0 0
BITMAP
0C
18
00
FE
C0
C0
C0
FC
C0
C0
C0
C0
FE
ENDCHAR
STARTCHAR char202
ENCODING 202
SWIDTH 617 0
DWIDTH 9 0
BBX 7 13 0 0
BITMAP
38
6C
00
FE
C0
C0
C0
FC
C0
C0
C0
C0
FE
ENDCHAR
STARTCHAR char203
ENCODING 203
SWIDTH 617 0
DWIDTH 9 0
BBX 7 13 0 0
BITMAP
6C
6C
00
FE
C0
C0
C0
FC
C0
C0
C0
C0
FE
ENDCHAR
STARTCHAR char206
ENCODING 206
SWIDTH 411 0
DWIDTH 6 0
BBX 5 13 0 0
BITMAP
70
D8
00
60
60
60
60
60
60
60
60
60
60
ENDCHAR
STARTCHAR char207
ENCODING 207
SWIDTH 411 0
DWIDTH 6 0
BBX 5 13 0 0
BITMAP
D8
D8
00
60
60
60
60
60
60
60
60
60
60
ENDCHAR
STARTCHAR char212
ENCODING 212
SWIDTH 685 0
DWIDTH 10 0
BBX 8 13 0 0
BITMAP
1C
36
00
3C
66
C3
C3
C3
C3
C3
C3
66
3C
ENDCHAR
STARTCHAR char217
ENCODING 217
SWIDTH 685 0
DWIDTH 10 0
BBX 8 13 0 0
BITMAP
30
18
00
C3
C3
C3
C3
C3
C3
C3
C3
66
3C
ENDCHAR
STARTCHAR char219
ENCODING 219
SWIDTH 685 0
DWIDTH 10 0
BBX 8 13 0 0
BITMAP
1C
36
00
C3
C3
C3
C3
C3
C3
C3
C3
66
3C
ENDCHAR
STARTCHAR char220
ENCODING 220
SWIDTH 685 0
DWIDTH 10 0
BBX 8 13 0 0
BITMAP
36
36
00
C3
C3
C3
C3
C3
C3
C3
C3
66
3C
ENDCHAR
STARTCHAR char224
ENCODING 224
SWIDTH 548 0
DWIDTH 8 0
BBX 7 10 0 0
BITMAP
30
18
00
7E
C6
C6
C6
C6
CE
76
ENDCHAR
STARTCHAR char226
ENCODING 226
SWIDTH 548 0
DWIDTH 8 0
BBX 7 10 0 0
BITMAP
38
6C
00
7E
C6
C6
C6
C6
CE
76
ENDCHAR
STARTCHAR char231
ENCODING 231
SWIDTH 548 0
DWIDTH 8 0
BBX 7 10 0 -3
BITMAP
7C
C6
C0
C0
C0
C6
7C
00
30
60
ENDCHAR
STARTCHAR char232
ENCODING 232
SWIDTH 548 0
DWIDTH 8 0
BBX 7 10 0 0
BITMAP
30
18
00
7C
C6
C6
FE
C0
C6
7C
ENDCHAR
STARTCHAR char233
ENCODING 233
SWIDTH 548 0
DWIDTH 8 0
BBX 7 10 0 0
BITMAP
0C
18
00
7C
C6
C6
FE
C0
C6
7C
ENDCHAR
STARTCHAR char234
ENCODING 234
SWIDTH 548 0
DWIDTH 8 0
BBX 7 10 0 0
BITMAP
38
6C
00
7C
C6
C6
FE
C0
C6
7C
ENDCHAR
STARTCHAR char235
ENCODING 235
SWIDTH 548 0
DWIDTH 8 0
BBX 7 10 0 0
BITMAP
6C
6C
00
7C
C6
C6
FE
C0
C6
7C
ENDCHAR
STARTCHAR char238
ENCODING 238
SWIDTH 342 0
DWIDTH 5 0
BBX 5 10 -1 0
BITMAP
70
D8
00
30
30
30
30
30
30
30
ENDCHAR
STARTCHAR char239
ENCODING 239
SWIDTH 342 0
DWIDTH 5 0
BBX 5 10 -1 0
BITMAP
D8
D8
00
30
30
30
30
30
30
30
ENDCHAR
STARTCHAR char244
ENCODING 244
SWIDTH 548 0
DWIDTH 8 0
BBX 7 10 0 0
BITMAP
38
6C
00
7C
C6
C6
C6
C6
C6
7C
ENDCHAR
STARTCHAR char246
ENCODING 246
SWIDTH 548 0
DWIDTH 8 0
BBX 7 10 0 0
BITMAP
6C
6C
00
7C
C6
C6
C6
C6
C6
7C
ENDCHAR
STARTCHAR char249
ENCODING 249
SWIDTH 548 0
DWIDTH 8 0
BBX 7 10 0 0
BITMAP
30
18
00
C6
C6
C6
C6
C6
CE
76
ENDCHAR
STARTCHAR char250
ENCODING 250
SWIDTH 548 0
DWIDTH 8 0
BBX 7 10 0 0
BITMAP
18
30
00
C6
C6
C6
C6
C6
CE
76
ENDCHAR
STARTCHAR char251
ENCODING 251
SWIDTH 548 0
DWIDTH 8 0
BBX 7 10 0 0
BITMAP
38
6C
00
C6
C6
C6
C6
C6
CE
76
ENDCHAR
STARTCHAR char252
ENCODING 252
SWIDTH 548 0
DWIDTH 8 0
BBX 7 10 0 0
BITMAP
6C
6C
00
C6
C6
C6
C6
C6
CE
76
ENDCHAR
STARTCHAR char8216
ENCODING 8216
SWIDTH 274 0
DWIDTH 4 0
BBX 3 3 0 7
BITMAP
20
40
C0
ENDCHAR
STARTCHAR char8217
ENCODING 8217
SWIDTH 274 0
DWIDTH 4 0
BBX 3 3 0 7
BITMAP
60
40
80
ENDCHAR
STARTCHAR char8218
ENCODING 8218
SWIDTH 274 0
DWIDTH 4 0
BBX 3 3 0 -1
BITMAP
60
40
80
ENDCHAR
STARTCHAR char8220
ENCODING 8220
SWIDTH 480 0
DWIDTH 7 0
BBX 6 3 0 7
BITMAP
24
48
D8
ENDCHAR
STARTCHAR char8221
ENCODING 8221
SWIDTH 480 0
DWIDTH 7 0
BBX 6 3 0 7
BITMAP
6C
48
90
ENDCHAR
STARTCHAR char8240
ENCODING 8240
SWIDTH 1028 0
DWIDTH 15 0
BBX 14 10 0 0
BITMAP
6100
9300
9200
9600
6400
0D98
0A64
1A64
1264
3198
ENDCHAR
STARTCHAR char8725
ENCODING 8725
SWIDTH 68 0
DWIDTH 1 0
BBX 6 9 -3 0
BITMAP
0C
08
18
10
30
20
60
40
C0
ENDCHAR
ENDFONT
